<svg width="24" height="23" fill="none" xmlns="http://www.w3.org/2000/svg"><g filter="url(#a)"><path d="M18.222 1.667v11.666H5.778V1.667h12.444Zm0-1.667H5.778C4.8 0 4 .75 4 1.667v11.666C4 14.25 4.8 15 5.778 15h12.444C19.2 15 20 14.25 20 13.333V1.667C20 .75 19.2 0 18.222 0Z" fill="#212121"/><path d="M18.722 1.667v-.5H5.278v12.666h13.444V1.667ZM5.778.5h12.444c.733 0 1.278.556 1.278 1.167v11.666c0 .611-.545 1.167-1.278 1.167H5.778c-.733 0-1.278-.556-1.278-1.167V1.667C4.5 1.056 5.045.5 5.778.5Z" stroke="#000" stroke-opacity=".2"/></g><defs><filter id="a" x="0" y="0" width="24" height="23" filterUnits="userSpaceOnUse" color-interpolation-filters="sRGB"><feFlood flood-opacity="0" result="BackgroundImageFix"/><feColorMatrix in="SourceAlpha" values="0 0 0 0 0 0 0 0 0 0 0 0 0 0 0 0 0 0 127 0" result="hardAlpha"/><feOffset dy="4"/><feGaussianBlur stdDeviation="2"/><feComposite in2="hardAlpha" operator="out"/><feColorMatrix values="0 0 0 0 0 0 0 0 0 0 0 0 0 0 0 0 0 0 0.25 0"/><feBlend in2="BackgroundImageFix" result="effect1_dropShadow_1_2687"/><feBlend in="SourceGraphic" in2="effect1_dropShadow_1_2687" result="shape"/></filter></defs></svg>